<?xml version="1.0" encoding="iso-8859-1"?>
<!-- Generator: Adobe Illustrator 21.0.2, SVG Export Plug-In . SVG Version: 6.00 Build 0)  -->
<svg version="1.1" id="Layer_1" xmlns="http://www.w3.org/2000/svg" xmlns:xlink="http://www.w3.org/1999/xlink" x="0px" y="0px"
	 viewBox="0 0 40 40" style="enable-background:new 0 0 40 40;" xml:space="preserve">
<g>
	<line style="fill:none;stroke:#967A44;stroke-linecap:square;stroke-miterlimit:10;" x1="8.5" y1="38.5" x2="31.5" y2="38.5"/>
</g>
<g>
	<line style="fill:none;stroke:#967A44;stroke-linecap:square;stroke-miterlimit:10;" x1="35.5" y1="38.5" x2="38.5" y2="38.5"/>
</g>
<g>
	<line style="fill:none;stroke:#967A44;stroke-linecap:square;stroke-miterlimit:10;" x1="1.5" y1="38.5" x2="4.5" y2="38.5"/>
</g>
<g>
	<line style="fill:none;stroke:#788B9C;stroke-linecap:square;stroke-miterlimit:10;" x1="19.5" y1="37.5" x2="19.5" y2="1.5"/>
</g>
<g>
	<g>
		<path style="fill:#8BB7F0;" d="M19.5,19.5c-2.223,0-4.34-0.703-5.665-1.88l-0.293-0.26l-0.323,0.222
			C12.359,18.174,11.216,18.5,10,18.5c-1.565,0-2.997-0.542-3.832-1.452l-0.307-0.334l-0.362,0.274C5.055,17.323,4.537,17.5,4,17.5
			c-1.354,0-2.459-1.082-2.499-2.426C1.872,13.942,5.954,2.5,19.5,2.5s17.628,11.442,17.999,12.574
			C37.459,16.418,36.354,17.5,35,17.5c-0.537,0-1.055-0.177-1.499-0.512l-0.362-0.274l-0.307,0.334
			C31.997,17.958,30.565,18.5,29,18.5c-1.216,0-2.359-0.326-3.219-0.918l-0.323-0.222l-0.293,0.26
			C23.84,18.797,21.723,19.5,19.5,19.5z"/>
	</g>
	<g>
		<path style="fill:#4E7AB5;" d="M19.5,3c12.904,0,16.994,10.677,17.495,12.144C36.921,16.18,36.054,17,35,17
			c-0.427,0-0.841-0.142-1.197-0.411l-0.725-0.547l-0.614,0.669C31.733,17.506,30.406,18,29,18c-1.116,0-2.158-0.295-2.936-0.83
			l-0.646-0.444l-0.586,0.521C23.597,18.344,21.604,19,19.5,19s-4.097-0.656-5.333-1.754l-0.586-0.521l-0.646,0.444
			C12.158,17.705,11.116,18,10,18c-1.406,0-2.733-0.494-3.464-1.29l-0.614-0.669l-0.725,0.547C4.841,16.858,4.427,17,4,17
			c-1.054,0-1.921-0.82-1.995-1.856C2.508,13.67,6.6,3,19.5,3 M19.5,2C5,2,1,15,1,15c0,1.657,1.343,3,3,3
			c0.678,0,1.297-0.234,1.8-0.613C6.689,18.355,8.233,19,10,19c1.366,0,2.601-0.385,3.503-1.006C14.871,19.21,17.044,20,19.5,20
			s4.629-0.79,5.997-2.006C26.399,18.615,27.634,19,29,19c1.767,0,3.311-0.645,4.2-1.613C33.703,17.766,34.322,18,35,18
			c1.657,0,3-1.343,3-3C38,15,34,2,19.5,2L19.5,2z"/>
	</g>
</g>
<g>
	<path style="fill:#C2E8FF;" d="M33.078,16.041l-0.615,0.669C31.733,17.506,30.406,18,29,18c-1.116,0-2.158-0.295-2.936-0.83
		l-0.646-0.444C25.418,16.725,26,8,19.5,3C31,5,33.078,16.041,33.078,16.041z"/>
</g>
<g>
	<path style="fill:#C2E8FF;" d="M19.5,3c-6.5,5-5.918,13.725-5.918,13.725l-0.646,0.444C12.158,17.705,11.116,18,10,18
		c-1.406,0-2.733-0.494-3.464-1.29l-0.615-0.669C5.922,16.041,8,5,19.5,3z"/>
</g>
</svg>
